<svg xmlns="http://www.w3.org/2000/svg" viewBox="0 0 500 400" fill="none">
  <rect width="500" height="400" fill="#f0f4ff" rx="20"/>
  <text x="250" y="50" text-anchor="middle" font-family="Arial" font-size="24" font-weight="bold" fill="#387ed1">Zerodha Presence Across India</text>
  <circle cx="250" cy="180" r="80" fill="#387ed1" opacity="0.08"/>
  <circle cx="250" cy="180" r="55" fill="#387ed1" opacity="0.12"/>
  <circle cx="250" cy="180" r="30" fill="#387ed1" opacity="0.25"/>
  <circle cx="250" cy="180" r="8" fill="#387ed1"/>
  <g stroke="#387ed1" stroke-width="1.5" opacity="0.4" fill="none">
    <line x1="250" y1="180" x2="120" y2="100"/>
    <line x1="250" y1="180" x2="380" y2="90"/>
    <line x1="250" y1="180" x2="100" y2="260"/>
    <line x1="250" y1="180" x2="400" y2="270"/>
    <line x1="250" y1="180" x2="250" y2="60"/>
    <line x1="250" y1="180" x2="170" y2="320"/>
    <line x1="250" y1="180" x2="340" y2="330"/>
    <line x1="250" y1="180" x2="60" y2="180"/>
    <line x1="250" y1="180" x2="440" y2="170"/>
  </g>
  <g fill="#387ed1" opacity="0.7">
    <circle cx="120" cy="100" r="4"/>
    <circle cx="380" cy="90" r="4"/>
    <circle cx="100" cy="260" r="4"/>
    <circle cx="400" cy="270" r="4"/>
    <circle cx="250" cy="60" r="4"/>
    <circle cx="170" cy="320" r="4"/>
    <circle cx="340" cy="330" r="4"/>
    <circle cx="60" cy="180" r="4"/>
    <circle cx="440" cy="170" r="4"/>
  </g>
  <text x="120" y="95" text-anchor="middle" font-family="Arial" font-size="10" fill="#666">Mumbai</text>
  <text x="380" y="85" text-anchor="middle" font-family="Arial" font-size="10" fill="#666">Delhi</text>
  <text x="100" y="275" text-anchor="middle" font-family="Arial" font-size="10" fill="#666">Chennai</text>
  <text x="400" y="285" text-anchor="middle" font-family="Arial" font-size="10" fill="#666">Kolkata</text>
  <text x="250" y="55" text-anchor="middle" font-family="Arial" font-size="10" fill="#666">Bengaluru</text>
  <text x="170" y="335" text-anchor="middle" font-family="Arial" font-size="10" fill="#666">Hyderabad</text>
  <text x="340" y="345" text-anchor="middle" font-family="Arial" font-size="10" fill="#666">Pune</text>
  <text x="60" y="195" text-anchor="middle" font-family="Arial" font-size="10" fill="#666">Ahmedabad</text>
  <text x="440" y="165" text-anchor="middle" font-family="Arial" font-size="10" fill="#666">Bhubaneswar</text>
  <rect x="150" y="340" width="200" height="40" rx="8" fill="#387ed1" opacity="0.1"/>
  <text x="250" y="365" text-anchor="middle" font-family="Arial" font-size="14" fill="#387ed1" font-weight="bold">2,000+ cities across India</text>
</svg>
